<svg width="434" height="190" viewBox="0 0 434 190" fill="none" xmlns="http://www.w3.org/2000/svg">
<path d="M82.7624 189.888H28.8664C23.1858 189.888 18.5662 184.844 18.5662 178.64V169.793H10.3002C4.61966 169.793 0 164.749 0 158.545V34.0114C0 27.808 4.61966 22.7632 10.3002 22.7632H18.5662V14.3327C18.5662 8.12939 23.1858 3.08459 28.8664 3.08459H51.5166C57.1972 3.08459 61.8168 8.12939 61.8168 14.3327V117.214C61.8168 120.313 64.1292 122.838 66.967 122.838H101.972C107.653 122.838 112.273 127.883 112.273 134.086V158.545C112.273 164.749 107.653 169.793 101.972 169.793H93.0626V178.64C93.0626 184.844 88.4378 189.888 82.7624 189.888ZM23.7163 169.799V178.646C23.7163 181.745 26.0287 184.27 28.8664 184.27H82.7624C85.6001 184.27 87.9125 181.745 87.9125 178.646V169.799H23.7163ZM93.0626 164.175H101.972C104.81 164.175 107.122 161.65 107.122 158.551V134.092C107.122 130.993 104.81 128.468 101.972 128.468H66.967C61.2864 128.468 56.6667 123.423 56.6667 117.22V14.3327C56.6667 11.2339 54.3543 8.70867 51.5166 8.70867H28.8664C26.0287 8.70867 23.7163 11.2339 23.7163 14.3327V22.7632H32.3015C37.9821 22.7632 42.6018 27.808 42.6018 34.0114V138.017C42.6018 141.116 44.9142 143.642 47.7519 143.642H82.7572C88.4378 143.642 93.0575 148.686 93.0575 154.89V164.175H93.0626ZM23.7163 164.175H87.9125V154.895C87.9125 151.796 85.6001 149.271 82.7624 149.271H47.757C42.0765 149.271 37.4568 144.226 37.4568 138.023V34.0114C37.4568 30.9125 35.1444 28.3873 32.3067 28.3873H23.7163V164.175ZM10.3002 28.3873C7.46252 28.3873 5.15012 30.9125 5.15012 34.0114V158.545C5.15012 161.644 7.46252 164.169 10.3002 164.169H18.5662V28.3873H10.3002Z" fill="url(#paint0_linear)"/>
<path d="M249.878 189.809H167.868C164.495 189.809 161.435 188.088 159.478 185.085C157.521 182.082 157.032 178.364 158.134 174.877L161.441 164.456H149.528C146.119 164.456 142.936 162.623 141.02 159.546C139.099 156.47 138.698 152.567 139.944 149.102L185.605 22.06C187.165 17.7239 190.925 14.9231 195.195 14.9231C195.195 14.9231 195.195 14.9231 195.2 14.9231C199.469 14.9231 203.229 17.7295 204.789 22.0656L205.763 24.7708L211.15 7.78611C212.561 3.33184 216.264 0.362328 220.574 0.22735C224.895 0.0867485 228.742 2.8088 230.396 7.16184L284.183 148.9C285.502 152.375 285.146 156.324 283.231 159.456C281.315 162.589 278.111 164.456 274.666 164.456H255.878L259.468 174.456C260.709 177.92 260.307 181.823 258.386 184.9C256.465 187.97 253.288 189.809 249.878 189.809ZM166.895 164.456L163.006 176.722C162.455 178.466 162.697 180.322 163.676 181.823C164.654 183.325 166.184 184.185 167.873 184.185H249.884C251.614 184.185 253.164 183.291 254.138 181.728C255.111 180.17 255.307 178.263 254.678 176.508L250.352 164.456H166.895ZM253.859 158.832H274.666C276.417 158.832 277.977 157.921 278.946 156.329C279.919 154.738 280.089 152.814 279.42 151.054L225.632 9.31023C224.627 6.66692 222.439 5.78394 220.724 5.84018C219.009 5.89642 216.866 6.92 216.011 9.61956L208.652 32.8245L253.859 158.832ZM168.677 158.832H248.328L206.046 41.0132L168.677 158.832ZM195.189 20.5415C193.49 20.5415 191.342 21.4807 190.395 24.1128L144.734 151.155C144.1 152.915 144.296 154.816 145.274 156.38C146.253 157.943 147.798 158.838 149.528 158.838H163.228L203.157 32.9482L199.984 24.1128C199.042 21.4807 196.889 20.5415 195.189 20.5415Z" fill="url(#paint1_linear)"/>
<path d="M361.934 189.607H344.336C338.656 189.607 334.036 184.562 334.036 178.359V167.994H322.258C316.577 167.994 311.958 162.949 311.958 156.746V36.1317C311.958 29.9283 316.577 24.8836 322.258 24.8836H334.036V14.524C334.036 8.32064 338.656 3.27585 344.336 3.27585H383.462C394.087 3.27585 404.037 7.83135 411.473 16.11C418.745 24.1974 422.644 34.8269 422.453 46.0469C422.33 53.2626 420.501 60.349 417.154 66.5411C415.938 68.7907 416.325 71.7096 418.071 73.4868C428.191 83.7789 434 98.334 434 113.423C434 134.789 422.582 154.164 404.84 163.05C395.832 179.456 379.476 189.607 361.934 189.607ZM339.186 167.994V178.359C339.186 181.458 341.499 183.983 344.336 183.983H361.934C375.34 183.983 387.979 177.369 396.42 166.301C392.392 167.426 388.241 167.994 384.013 167.994H339.186ZM339.186 162.37H384.018C389.982 162.37 395.765 161.11 401.225 158.63C404.855 151.437 406.771 143.293 406.771 135.025C406.771 121.494 401.565 108.44 392.485 99.2057C388.983 95.6457 388.21 89.7966 390.646 85.2861C393.541 79.9264 395.127 73.7905 395.235 67.5422C395.4 57.8463 392.021 48.6509 385.728 41.6489C379.254 34.467 370.612 30.5076 361.383 30.5076H339.186V162.37ZM322.258 30.5076C319.42 30.5076 317.108 33.0328 317.108 36.1317V156.746C317.108 159.845 319.42 162.37 322.258 162.37H334.036V30.5076H322.258ZM339.186 24.8836H361.383C372.008 24.8836 381.958 29.4391 389.395 37.7177C396.667 45.8051 400.565 56.4346 400.375 67.6546C400.251 74.8703 398.423 81.9567 395.075 88.1488C393.86 90.3984 394.246 93.3173 395.992 95.0945C406.112 105.387 411.921 119.942 411.921 135.031C411.921 141.634 410.824 148.163 408.718 154.282C421.145 145.318 428.855 130.037 428.855 113.418C428.855 99.8862 423.648 86.8327 414.569 77.598C411.066 74.038 410.294 68.1889 412.73 63.6784C415.624 58.3187 417.211 52.1828 417.319 45.9345C417.484 36.2386 414.105 27.0432 407.812 20.0412C401.348 12.8537 392.706 8.8943 383.472 8.8943H344.336C341.499 8.8943 339.186 11.4195 339.186 14.5184V24.8836Z" fill="url(#paint2_linear)"/>
<defs>
<linearGradient id="paint0_linear" x1="-4.17461e-07" y1="96.3107" x2="112.061" y2="96.3107" gradientUnits="userSpaceOnUse">
<stop stop-color="#FF798C"/>
<stop offset="0.3791" stop-color="#FF6071"/>
<stop offset="1" stop-color="#FF1733"/>
</linearGradient>
<linearGradient id="paint1_linear" x1="139.23" y1="94.8374" x2="284.695" y2="94.8374" gradientUnits="userSpaceOnUse">
<stop stop-color="#FF798C"/>
<stop offset="0.3791" stop-color="#FF6071"/>
<stop offset="1" stop-color="#FF1733"/>
</linearGradient>
<linearGradient id="paint2_linear" x1="311.958" y1="96.2662" x2="433.77" y2="96.2662" gradientUnits="userSpaceOnUse">
<stop stop-color="#FF798C"/>
<stop offset="0.3791" stop-color="#FF6071"/>
<stop offset="1" stop-color="#FF1733"/>
</linearGradient>
</defs>
</svg>
